PathFileType	4	(X/Y/Z)	C:\Users\°ÂÌØÂü\Desktop\20210112\bx_y_0_902-Unnamed.trc
DataRate	CameraRate	NumFrames	NumMarkers	Units	OrigDataRate	OrigDataStartFrame	OrigNumFrames
50.00	50.00	       4	0	mm	50.00	175	       466
Frame#	Time	
		

175	3.480	-325.48697	100.03665	1703.08020	-506.51761	98.67162	1322.79565	-699.48816	-3.06112	1028.59399	-688.82007	214.70442	1045.88464	-753.51532	78.68625	569.82385	-799.42621	253.16605	630.96906	-792.36420	248.88675	570.38196	-730.71027	209.43761	535.19122	-821.06763	258.28500	492.98947	-664.10480	-68.51088	161.44907				-604.39252	19.79185	167.15485	-676.83337	54.30929	160.15900	-716.61267	155.50735	219.52704	-798.49512	175.41725	182.12212	-774.96106	225.04663	202.10379	-596.07666	223.84322	174.34718	-882.36310	296.03339	144.33311	-562.19769	261.19574	166.16878	-667.81073	300.94077	158.29979	-630.03754	308.54575	161.26212	-527.98743	303.91977	146.25874	-496.61090	-82.99986	1442.62976	-888.73431	96.42699	1082.48328	-770.94775	-8.59978	204.23380	-796.60132	52.27738	173.95157	-812.16351	-37.10610	479.90540	-560.16241	-37.06590	163.28319	-876.03320	-78.59757	141.50241	-789.80634	-51.97576	712.07312	-779.27185	-26.16471	564.10181	-675.96423	173.95880	160.06157	-622.24329	-79.08877	157.51160	-748.77289	284.12051	875.01929	-785.47028	281.37994	742.35150	-517.96851	-72.86217	142.90735	-687.80127	-6.62330	802.28564	-723.54395	74.10588	218.96559	-722.95880	17.49788	524.28143	-515.61029	277.06583	1467.48608	-686.88885	216.85710	812.88159				-751.24817	147.03354	569.88721	-775.42194	-30.30157	612.79364	-764.58527	-68.43740	855.80280	
176	3.500	-316.35434	98.67780	1693.44287	-503.48743	97.59088	1316.01221	-702.35089	-3.24209	1027.43701	-691.93280	214.58597	1044.29443	-754.84875	78.72349	569.74023	-801.80585	253.21236	630.45233	-794.06500	248.25471	569.62292	-731.87305	209.30437	535.53577	-822.61066	258.70667	492.60922	-664.06427	-68.48380	161.53581				-604.34814	19.83525	167.10284	-676.83441	54.38725	160.26170	-716.63550	155.58528	219.54904	-798.68756	175.43719	181.90306	-775.09558	224.91800	201.92088	-596.07196	223.93616	174.10985	-882.53247	296.12393	144.73801	-562.25098	260.97321	166.28314	-667.59082	301.04037	158.31750	-629.92285	308.66177	161.47186	-528.07092	303.79016	146.30112	-491.65070	-84.50046	1435.00806	-891.65448	96.33154	1082.72852	-771.00867	-8.62080	204.19885	-796.73193	52.09262	174.10414	-813.35724	-37.54241	479.85229	-560.26855	-37.08921	163.11703	-876.18134	-78.72787	141.53189	-791.63593	-51.90682	712.04944	-781.00421	-26.35355	564.21057	-675.95813	174.09306	159.98438	-622.07544	-79.13686	157.43340	-752.47491	284.07086	874.63300	-788.52051	282.01956	742.38312	-518.08228	-72.87986	142.93791	-690.55859	-5.90478	802.20099	-723.88556	73.80965	218.90860	-723.84430	17.58145	524.29895	-509.27634	275.83716	1461.24072	-690.23663	217.34669	812.54120				-752.66992	147.05934	569.78119	-777.64807	-30.39509	612.85132	-766.93970	-68.41098	855.71655	
177	3.520	-307.28198	97.18544	1682.83362				-705.42474	-3.41468	1026.22253	-695.22247	214.92952	1042.68494	-756.87415	78.81251	569.52277	-804.01721	253.25937	630.02637	-796.10718	248.68375	569.81647	-733.76935	209.55254	535.37054	-823.73889	258.98502	492.13071	-664.03040	-68.47481	161.35562				-604.23730	19.91844	167.11737	-676.49628	54.39675	160.45491	-717.14392	155.90315	219.55275	-798.74225	175.54625	182.06470	-775.06903	225.13603	201.70819	-596.16437	223.88354	174.07901	-882.63708	296.26340	144.71671	-562.27472	260.84943	166.05539	-667.62732	300.70935	158.19057	-629.87982	308.60602	161.58185	-527.95679	304.04678	146.31200	-487.12631	-85.01925	1426.93079	-893.85016	95.89278	1082.97876	-771.13245	-8.47115	203.85954	-796.70251	52.24045	173.92296	-814.96527	-37.62530	479.76065	-560.19757	-37.18172	163.18433	-876.29834	-78.85766	141.48222	-793.71234	-50.63030	710.81171	-782.89343	-26.25329	563.44360	-676.06903	173.98007	160.54675	-622.13446	-78.90769	157.23926	-755.94464	284.87137	874.52417	-791.80090	282.20108	741.63940	-517.84918	-72.82476	142.85159	-693.43481	-5.46983	801.79260	-723.90784	73.60750	218.91585	-725.72461	17.55648	524.52161	-502.87515	274.84937	1454.48193	-693.39886	218.45866	812.21997				-754.99915	147.43376	569.59576	-779.57922	-30.28766	612.76324	-769.40210	-68.34510	855.63263	
178	3.540	-298.37408	96.23792	1672.40381				-708.79907	-3.25829	1024.84607	-698.25757	215.32062	1041.23853	-758.40430	78.45621	568.89233	-806.48407	253.21326	629.50427	-797.88965	248.77528	569.32178	-735.51379	209.94434	535.24005	-825.23328	259.08231	491.74847	-664.17767	-68.57238	161.32207				-604.69513	19.77421	167.17053	-676.75397	54.41733	160.40085	-717.28680	156.15062	219.68234	-798.83301	175.61725	181.98407	-775.24292	225.24022	201.66066	-596.21356	223.93060	174.20972	-882.69684	296.25226	144.67354	-562.31433	260.88467	166.07689	-667.68506	300.79510	158.10146	-629.98444	308.54187	161.33763	-528.06763	303.96402	146.20943	-482.90646	-85.98575	1418.84143	-896.28284	96.17854	1083.81445	-771.17371	-8.49138	203.78761	-796.86548	52.19757	173.74866	-816.42773	-37.21612	479.16376	-560.26855	-37.08921	163.11703	-876.05652	-78.57231	140.90112	-796.20282	-50.50523	710.07904	-784.51099	-26.20919	563.20367	-676.22742	174.22212	160.68994	-622.16119	-79.22172	157.47981	-759.38593	284.84698	873.85693	-794.88055	282.50668	741.25995	-517.93097	-72.78703	142.93649	-696.09436	-5.77285	801.96527	-724.23907	73.76373	218.99583	-727.17047	17.55803	524.36414	-496.85901	273.80222	1447.54395	-696.40521	218.60611	811.53278				-756.29926	147.49307	569.45251	-781.93317	-29.87644	612.22455	-772.46295	-67.57529	854.98285	
